<svg width="100" height="100" viewBox="0 0 100 100" fill="none" xmlns="http://www.w3.org/2000/svg">
<rect width="100" height="100" rx="50" fill="#00043A"/>
<path d="M73.1627 38.6001C72.3007 34.9655 68.6661 32.3817 64.9634 32.6903V31.9853C64.9634 31.3539 64.6878 30.7577 64.1859 30.3086C62.6376 28.9184 59.1194 29.1358 57.6798 29.2906L36.7373 31.5746L33.879 29.966L56.999 27.5645C57.9038 27.47 58.5616 26.6607 58.4671 25.7559C58.3738 24.8511 57.5667 24.201 56.6586 24.2878L30.006 27.056C29.8699 26.7047 29.6283 26.3972 29.289 26.2061L28.6697 25.858L52.3486 23.2841C53.2535 23.1853 53.9068 22.3727 53.808 21.469C53.7103 20.5653 52.8933 19.912 51.9929 20.0097L22.7412 23.1897C22.3788 23.2292 22.0603 23.3874 21.8111 23.6158C20.276 24.189 19 25.8196 19 28.7273V58.8696C19 62.4888 21.0896 66.4979 23.7558 67.9979L27.6726 70.2017C27.9241 70.3423 28.2019 70.4126 28.4797 70.4126C28.5236 70.4126 28.5654 70.3983 28.6093 70.395C29.4328 71.7907 30.4848 72.9612 31.6652 73.6245L35.581 75.8272C35.8313 75.9678 36.1103 76.038 36.3881 76.038C36.6758 76.038 36.9635 75.9634 37.2193 75.8129C37.7244 75.5165 38.0352 74.9762 38.0352 74.3909V45.226L43.8451 73.552C44.5578 77.0285 47.3667 79.6496 50.3776 79.6496C50.6302 79.6496 50.8838 79.631 51.1375 79.5947L55.476 78.9611C55.4935 78.9589 55.5089 78.9512 55.5254 78.9479C55.5408 78.9457 55.5561 78.9468 55.5715 78.9436L74.4288 75.0388C76.3043 74.6501 77.8965 73.5564 78.9134 71.9598C79.9313 70.361 80.2475 68.4547 79.805 66.5891L73.1627 38.6001ZM26.8337 65.95L25.3711 65.1275C23.7327 64.2062 22.2942 61.2821 22.2942 58.8696V28.7273C22.2942 27.5678 22.6511 26.6596 23.1057 26.6596C23.2781 26.6596 23.5087 26.7365 23.7569 26.876L26.8337 28.6054V65.95ZM34.7421 71.5776L33.2805 70.7552C31.6411 69.8328 30.2037 66.9086 30.2037 64.4972V34.355C30.2037 33.1954 30.5606 32.2873 31.0152 32.2873C31.1876 32.2873 31.4193 32.3631 31.6652 32.5025L34.7421 34.2331V71.5776V71.5776ZM38.0363 41.0412V34.7481L58.0356 32.5673C59.8211 32.3751 61.0652 32.5124 61.6691 32.6672V33.1043L46.6408 35.0643C46.5936 35.0709 46.5497 35.0863 46.5036 35.0962C46.4662 35.105 46.4289 35.1061 46.3916 35.1159L42.2002 36.3381C40.1204 36.9464 38.6084 38.7714 38.0363 41.0412ZM50.6609 76.3345C49.1071 76.5563 47.4962 74.9597 47.0713 72.8887L41.1856 44.1916C40.7529 42.0822 41.6402 39.9343 43.1226 39.5017L45.5999 38.7791L53.2699 75.9535L50.6609 76.3345ZM76.1352 70.1908C75.6005 71.0308 74.7571 71.6073 73.7612 71.8137L56.518 75.3836L48.826 38.1016L65.0611 35.9834C67.21 35.7023 69.4567 37.2484 69.9574 39.3622L76.6008 67.3511C76.8347 68.3416 76.67 69.3496 76.1352 70.1908Z" fill="#FFCC1D"/>
<path d="M67.2374 40.4537C67.0255 39.6181 66.2031 39.0855 65.3575 39.237L52.7516 41.4398C52.3146 41.5155 51.9269 41.7659 51.6766 42.1316C51.4251 42.4983 51.334 42.9496 51.4207 43.3856L53.1348 51.9528C53.2907 52.7335 53.9759 53.2771 54.7479 53.2771C54.8335 53.2771 54.9203 53.2705 55.0081 53.2562L68.1038 51.1753C68.5606 51.1029 68.9669 50.8404 69.2206 50.455C69.4753 50.0685 69.5555 49.593 69.4424 49.1439L67.2374 40.4537ZM56.0524 49.7533L54.9807 44.3936L64.4198 42.7443L65.8044 48.205L56.0524 49.7533Z" fill="#FFCC1D"/>
</svg>
