<svg width="100" height="100" viewBox="0 0 100 100" fill="none" xmlns="http://www.w3.org/2000/svg">
<rect width="100" height="100" rx="50" fill="#00043A"/>
<path d="M71.1176 25.3876V20.1937H66.2354V15H35.5382L24 27.2743V74.661H28.8824V79.8549H33.7646V85.0486H76V25.3876H71.1176ZM34.9643 18.5584V26.6637H27.345L34.9643 18.5584ZM25.9595 28.7482H36.9238V17.0845H64.2761V72.5763H25.9595V28.7482ZM30.8418 74.6609H66.2356V22.2782H69.1583V77.7702H30.8418V74.6609ZM74.0404 82.9639H35.7239V79.8547H71.1176V27.4721H74.0404V82.9639Z" fill="#FFCC1D"/>
<path d="M58.6194 31.2936H31.616V33.3781H58.6194V31.2936Z" fill="#FFCC1D"/>
<path d="M58.6194 36.862H31.616V38.9465H58.6194V36.862Z" fill="#FFCC1D"/>
<path d="M58.6194 42.4305H31.616V44.515H58.6194V42.4305Z" fill="#FFCC1D"/>
<path d="M58.6194 47.9991H31.616V50.0836H58.6194V47.9991Z" fill="#FFCC1D"/>
<path d="M58.6194 53.5676H31.616V55.6521H58.6194V53.5676Z" fill="#FFCC1D"/>
<path d="M58.6194 59.136H31.616V61.2205H58.6194V59.136Z" fill="#FFCC1D"/>
<path d="M58.6194 64.7045H31.616V66.789H58.6194V64.7045Z" fill="#FFCC1D"/>
</svg>
