<svg width="100" height="100" viewBox="0 0 100 100" fill="none" xmlns="http://www.w3.org/2000/svg">
<rect width="100" height="100" rx="50" fill="#00043A"/>
<path d="M71.0471 60.3921H69.3187C69.2884 60.3921 69.2732 60.3769 69.2732 60.3466V60.0585C69.2732 59.8311 69.4703 59.634 69.6977 59.634H70.668C70.8954 59.634 71.0925 59.8311 71.0925 60.0585V60.3466C71.0925 60.3769 71.0774 60.3921 71.0471 60.3921Z" fill="#1CD759"/>
<path d="M68.97 65.8501H70.1829V63.7275H68.97V65.8501Z" fill="#FEFEFF"/>
<path d="M71.0925 68.1243H69.2732C69.0155 68.1243 68.8184 67.9272 68.8184 67.6694V62.8482C68.8184 62.5753 68.97 62.3479 69.1974 62.2266C69.3338 62.166 69.4248 62.0295 69.4248 61.8779V60.2405H70.9409V61.8779C70.9409 62.0295 71.0319 62.166 71.1532 62.2266C71.3958 62.3479 71.5474 62.5905 71.5474 62.8482V67.6694C71.5474 67.9272 71.3503 68.1243 71.0925 68.1243ZM69.728 60.5437V61.8779C69.728 62.1508 69.5764 62.3782 69.3338 62.4995C69.1974 62.5601 69.1216 62.6966 69.1216 62.8482V67.6694C69.1216 67.7604 69.1822 67.8211 69.2732 67.8211H71.0925C71.1835 67.8211 71.2441 67.7604 71.2441 67.6694V62.8482C71.2441 62.6966 71.1532 62.5601 71.0167 62.4995C70.7893 62.3782 70.6377 62.1356 70.6377 61.8779V60.5437H69.728Z" fill="#FFCC1D"/>
<path d="M71.047 60.5437H69.3187C69.2125 60.5437 69.1216 60.4527 69.1216 60.3466V60.0585C69.1216 59.7402 69.3793 59.4824 69.6977 59.4824H70.668C70.9864 59.4824 71.2441 59.7402 71.2441 60.0585V60.3466C71.2441 60.4527 71.1532 60.5437 71.047 60.5437ZM69.4248 60.2405H70.9409V60.0585C70.9409 59.9069 70.8196 59.7856 70.668 59.7856H69.6977C69.5461 59.7856 69.4248 59.9069 69.4248 60.0585L69.4248 60.2405Z" fill="black"/>
<path d="M69.728 60.0889C69.6371 60.0889 69.5764 60.0282 69.5764 59.9373V59.634C69.5764 59.5431 69.6371 59.4824 69.728 59.4824C69.819 59.4824 69.8796 59.5431 69.8796 59.634V59.9372C69.8796 60.0282 69.819 60.0889 69.728 60.0889Z" fill="black"/>
<path d="M70.1829 60.0889C70.0919 60.0889 70.0312 60.0282 70.0312 59.9373V59.634C70.0312 59.5431 70.0919 59.4824 70.1829 59.4824C70.2738 59.4824 70.3345 59.5431 70.3345 59.634V59.9372C70.3345 60.0282 70.2738 60.0889 70.1829 60.0889Z" fill="black"/>
<path d="M70.6377 60.0889C70.5467 60.0889 70.4861 60.0282 70.4861 59.9373V59.634C70.4861 59.5431 70.5467 59.4824 70.6377 59.4824C70.7286 59.4824 70.7893 59.5431 70.7893 59.634V59.9372C70.7893 60.0282 70.7287 60.0889 70.6377 60.0889Z" fill="black"/>
<path d="M70.1829 66.0017H68.97C68.879 66.0017 68.8184 65.9411 68.8184 65.8501V63.7275C68.8184 63.6366 68.879 63.5759 68.97 63.5759H70.1829C70.2738 63.5759 70.3345 63.6366 70.3345 63.7275V65.8501C70.3345 65.9411 70.2738 66.0017 70.1829 66.0017ZM69.1216 65.6985H70.0313V63.8792H69.1216V65.6985Z" fill="#FFCC1D"/>
<path d="M73.9782 60.3921H72.2498C72.2195 60.3921 72.2043 60.3769 72.2043 60.3466V60.0585C72.2043 59.8311 72.4014 59.634 72.6289 59.634H73.5992C73.8266 59.634 74.0237 59.8311 74.0237 60.0585V60.3466C74.0237 60.3769 74.0085 60.3921 73.9782 60.3921Z" fill="#1CD759"/>
<path d="M71.9011 65.8501H73.114V63.7275H71.9011V65.8501Z" fill="#FEFEFF"/>
<path d="M74.0237 68.1243H72.2043C71.9466 68.1243 71.7495 67.9272 71.7495 67.6694V62.8482C71.7495 62.5753 71.9011 62.3479 72.1285 62.2266C72.265 62.166 72.356 62.0295 72.356 61.8779V60.2405H73.8721V61.8779C73.8721 62.0295 73.963 62.166 74.0843 62.2266C74.3269 62.3479 74.4785 62.5905 74.4785 62.8482V67.6694C74.4785 67.9272 74.2814 68.1243 74.0237 68.1243ZM72.6592 60.5437V61.8779C72.6592 62.1508 72.5076 62.3782 72.265 62.4995C72.1286 62.5601 72.0528 62.6966 72.0528 62.8482V67.6694C72.0528 67.7604 72.1134 67.8211 72.2044 67.8211H74.0237C74.1146 67.8211 74.1753 67.7604 74.1753 67.6694V62.8482C74.1753 62.6966 74.0843 62.5601 73.9479 62.4995C73.7204 62.3782 73.5688 62.1356 73.5688 61.8779V60.5437H72.6592Z" fill="#FFCC1D"/>
<path d="M73.9782 60.5437H72.2498C72.1437 60.5437 72.0527 60.4527 72.0527 60.3466V60.0585C72.0527 59.7402 72.3105 59.4824 72.6289 59.4824H73.5992C73.9176 59.4824 74.1753 59.7402 74.1753 60.0585V60.3466C74.1753 60.4527 74.0843 60.5437 73.9782 60.5437ZM72.356 60.2405H73.8721V60.0585C73.8721 59.9069 73.7508 59.7856 73.5992 59.7856H72.6289C72.4773 59.7856 72.356 59.9069 72.356 60.0585L72.356 60.2405Z" fill="black"/>
<path d="M22.9737 78.6843V43.5369C22.9737 41.9896 23.8579 40.6633 25.1842 40C26.5106 39.3368 27.3948 37.9 27.3948 36.4632V25.6316H32.921V36.4632C32.921 38.0105 33.8053 39.3368 35.1316 40C36.4579 40.6633 37.3421 42.1001 37.3421 43.5369V78.6843C37.3421 79.9001 36.3474 80.8948 35.1316 80.8948H25.1842C23.9684 80.8948 22.9737 79.9 22.9737 78.6843Z" fill="#FFDD09"/>
<path d="M19.658 65.421H28.5001V49.9474H19.658V65.421V65.421Z" fill="#1CD759"/>
<path d="M34.8 25.6316H22.2C21.979 25.6316 21.8683 25.5211 21.8683 25.3V23.2C21.8683 21.542 23.3052 20.1052 24.9631 20.1052H32.0368C33.6948 20.1052 35.1316 21.542 35.1316 23.2V25.3C35.1316 25.521 35.0211 25.6316 34.8 25.6316Z" fill="#1CD759"/>
<path d="M55.8 25.6316H43.2C42.979 25.6316 42.8684 25.5211 42.8684 25.3V23.2C42.8684 21.542 44.3052 20.1052 45.9632 20.1052H53.0369C54.6948 20.1052 56.1316 21.542 56.1316 23.2V25.3C56.1316 25.521 56.0211 25.6316 55.8 25.6316Z" fill="#1CD759"/>
<path d="M76.8001 25.6316H64.2001C63.979 25.6316 63.8685 25.5211 63.8685 25.3V23.2C63.8685 21.542 65.3053 20.1052 66.9632 20.1052H74.0369C75.6949 20.1052 77.1317 21.542 77.1317 23.2V25.3C77.1316 25.521 77.0211 25.6316 76.8001 25.6316Z" fill="#1CD759"/>
<path d="M58.3421 78.6843V43.5369C58.3421 41.9896 57.4579 40.6633 56.1316 40C54.8053 39.3368 53.9211 37.9 53.9211 36.4632V25.6316H45.0789V36.4632C45.0789 38.0105 44.1947 39.3368 42.8684 40C41.5421 40.6631 40.6578 42.1001 40.6578 43.5369V78.6843C40.6578 79.9001 41.6525 80.8948 42.8684 80.8948H56.1315C57.3473 80.8948 58.3421 79.9 58.3421 78.6843Z" fill="#FFDD09"/>
<path d="M76.0263 78.6843V43.5369C76.0263 41.9896 75.1421 40.6633 73.8158 40C72.4895 39.3368 71.6053 37.9 71.6053 36.4632V25.6316H66.079V36.4632C66.079 38.0105 65.1948 39.3368 63.8684 40C62.5421 40.6631 61.6579 42.1001 61.6579 43.5369V78.6843C61.6579 79.9001 62.6526 80.8948 63.8684 80.8948H73.8158C75.0316 80.8948 76.0263 79.9 76.0263 78.6843Z" fill="#FFDD09"/>
<path d="M77.1315 40C75.8052 39.3369 74.921 37.9 74.921 36.4632V25.6316H71.6052V36.4632C71.6052 38.0105 72.4894 39.3368 73.8158 40C75.1421 40.6633 76.0263 42.1001 76.0263 43.5369V78.6843C76.0263 79.9001 75.0316 80.8948 73.8158 80.8948H77.1315C78.3473 80.8948 79.3421 79.9001 79.3421 78.6843V43.5369C79.3421 42.1 78.4578 40.6631 77.1315 40Z" fill="#FD9808"/>
<path d="M21.8685 40C23.1948 39.3369 24.079 37.9 24.079 36.4632V25.6316H27.3948V36.4632C27.3948 38.0105 26.5106 39.3368 25.1842 40C23.8579 40.6633 22.9737 42.1001 22.9737 43.5369V78.6843C22.9737 79.9001 23.9684 80.8948 25.1842 80.8948H21.8685C20.6527 80.8948 19.658 79.9001 19.658 78.6843V43.5369C19.658 42.1 20.5422 40.6631 21.8685 40Z" fill="white"/>
<path d="M40.6578 65.421H49.5V49.9474H40.6578V65.421Z" fill="#1CD759"/>
<path d="M61.6579 65.421H70.5V49.9474H61.6579V65.421Z" fill="#1CD759"/>
<path d="M35.1316 82H21.8685C19.9896 82 18.5527 80.5632 18.5527 78.6842V43.5369C18.5527 41.5475 19.6579 39.8895 21.3159 39.0053C22.3106 38.5632 22.9738 37.5685 22.9738 36.4632V24.5263H34.0265V36.4632C34.0265 37.5684 34.6896 38.5632 35.5738 39.0053C37.3422 39.8895 38.4474 41.658 38.4474 43.5369V78.6842C38.4473 80.5632 37.0105 82 35.1316 82ZM25.1842 26.7368V36.4632C25.1842 38.4526 24.079 40.1105 22.3106 40.9947C21.4264 41.4369 20.7633 42.4316 20.7633 43.5369V78.6842C20.7633 79.3473 21.2054 79.7895 21.8685 79.7895H35.1316C35.7947 79.7895 36.2368 79.3473 36.2368 78.6842V43.5369C36.2368 42.4317 35.5737 41.4369 34.5789 40.9947C32.9209 40.1105 31.8157 38.3421 31.8157 36.4632V26.7368H25.1842Z" fill="black"/>
<path d="M34.7999 26.7368H22.1999C21.4262 26.7368 20.7631 26.0737 20.7631 25.3V23.2C20.7631 20.8789 22.642 19 24.9631 19H32.0368C34.3578 19 36.2368 20.8789 36.2368 23.2V25.3C36.2369 26.0737 35.5737 26.7368 34.7999 26.7368ZM22.9737 24.5263H34.0263V23.2C34.0263 22.0948 33.1421 21.2105 32.0369 21.2105H24.9631C23.8579 21.2105 22.9737 22.0948 22.9737 23.2V24.5263Z" fill="black"/>
<path d="M25.1842 23.4211C24.5211 23.4211 24.079 22.979 24.079 22.3159V20.1052C24.079 19.4421 24.521 19 25.1842 19C25.8475 19 26.2895 19.4421 26.2895 20.1052V22.3157C26.2895 22.979 25.8473 23.4211 25.1842 23.4211Z" fill="black"/>
<path d="M28.5 23.4211C27.8369 23.4211 27.3948 22.979 27.3948 22.3159V20.1052C27.3948 19.4421 27.8369 19 28.5 19C29.1631 19 29.6052 19.4421 29.6052 20.1052V22.3157C29.6053 22.979 29.1632 23.4211 28.5 23.4211Z" fill="black"/>
<path d="M31.8158 23.4211C31.1527 23.4211 30.7106 22.979 30.7106 22.3159V20.1052C30.7106 19.4421 31.1527 19 31.8158 19C32.4789 19 32.921 19.4421 32.921 20.1052V22.3157C32.921 22.979 32.4789 23.4211 31.8158 23.4211Z" fill="black"/>
<path d="M56.1316 82H42.8684C40.9895 82 39.5527 80.5632 39.5527 78.6842V43.5369C39.5527 41.5475 40.6579 39.8895 42.3158 39.0053C43.3105 38.5632 43.9737 37.5685 43.9737 36.4632V24.5263H55.0264V36.4632C55.0264 37.5684 55.6895 38.5632 56.5737 39.0053C58.3422 39.8895 59.4474 41.658 59.4474 43.5369V78.6842C59.4474 80.5632 58.0106 82 56.1316 82ZM46.1843 26.7368V36.4632C46.1843 38.4526 45.0791 40.1105 43.3106 40.9947C42.3159 41.4369 41.7633 42.4316 41.7633 43.5369V78.6842C41.7633 79.3473 42.2054 79.7895 42.8685 79.7895H56.1316C56.7947 79.7895 57.2368 79.3473 57.2368 78.6842V43.5369C57.2368 42.4317 56.5737 41.4369 55.5789 40.9947C53.921 40.1105 52.8158 38.3421 52.8158 36.4632V26.7368H46.1843Z" fill="black"/>
<path d="M55.8 26.7368H43.2C42.4263 26.7368 41.7632 26.0737 41.7632 25.3V23.2C41.7632 20.8789 43.6421 19 45.9631 19H53.0369C55.3579 19 57.2368 20.8789 57.2368 23.2V25.3C57.2368 26.0737 56.5737 26.7368 55.8 26.7368ZM43.9737 24.5263H55.0264V23.2C55.0264 22.0948 54.1422 21.2105 53.037 21.2105H45.9633C44.8581 21.2105 43.9738 22.0948 43.9738 23.2L43.9737 24.5263Z" fill="black"/>
<path d="M46.1842 23.4211C45.5211 23.4211 45.079 22.979 45.079 22.3159V20.1052C45.079 19.4421 45.5211 19 46.1842 19C46.8473 19 47.2895 19.4421 47.2895 20.1052V22.3157C47.2895 22.979 46.8473 23.4211 46.1842 23.4211Z" fill="black"/>
<path d="M49.5 23.4211C48.8369 23.4211 48.3948 22.979 48.3948 22.3159V20.1052C48.3948 19.4421 48.8369 19 49.5 19C50.1631 19 50.6052 19.4421 50.6052 20.1052V22.3157C50.6052 22.979 50.1631 23.4211 49.5 23.4211Z" fill="black"/>
<path d="M52.8158 23.4211C52.1527 23.4211 51.7106 22.979 51.7106 22.3159V20.1052C51.7106 19.4421 52.1527 19 52.8158 19C53.4789 19 53.921 19.4421 53.921 20.1052V22.3157C53.9211 22.979 53.479 23.4211 52.8158 23.4211Z" fill="black"/>
<path d="M77.1315 82H63.8684C61.9895 82 60.5527 80.5632 60.5527 78.6842V43.5369C60.5527 41.5475 61.6579 39.8895 63.3158 39.0053C64.3105 38.5632 64.9737 37.5685 64.9737 36.4632V24.5263H76.0264V36.4632C76.0264 37.5684 76.6895 38.5632 77.5737 39.0053C79.3422 39.8895 80.4474 41.658 80.4474 43.5369V78.6842C80.4474 80.5632 79.0106 82 77.1315 82ZM67.1842 26.7368V36.4632C67.1842 38.4526 66.079 40.1105 64.3105 40.9947C63.3158 41.4369 62.7632 42.4316 62.7632 43.5369V78.6842C62.7632 79.3473 63.2053 79.7895 63.8684 79.7895H77.1315C77.7946 79.7895 78.2367 79.3473 78.2367 78.6842V43.5369C78.2367 42.4317 77.5736 41.4369 76.5788 40.9947C74.9209 40.1105 73.8156 38.3421 73.8156 36.4632V26.7368H67.1842Z" fill="black"/>
<path d="M76.8001 26.7368H64.2001C63.4263 26.7368 62.7632 26.0737 62.7632 25.3V23.2C62.7631 20.8789 64.6422 19 66.9632 19H74.0369C76.358 19 78.2369 20.8789 78.2369 23.2V25.3C78.2369 26.0737 77.5737 26.7368 76.8001 26.7368ZM64.9737 24.5263H76.0263V23.2C76.0263 22.0948 75.1421 21.2105 74.0369 21.2105H66.9632C65.858 21.2105 64.9738 22.0948 64.9738 23.2V24.5263H64.9737Z" fill="black"/>
<path d="M67.1842 23.4211C66.5211 23.4211 66.079 22.979 66.079 22.3159V20.1052C66.079 19.4421 66.5211 19 67.1842 19C67.8473 19 68.2894 19.4421 68.2894 20.1052V22.3157C68.2895 22.979 67.8474 23.4211 67.1842 23.4211Z" fill="black"/>
<path d="M70.5 23.4211C69.8369 23.4211 69.3948 22.979 69.3948 22.3159V20.1052C69.3948 19.4421 69.8369 19 70.5 19C71.1631 19 71.6052 19.4421 71.6052 20.1052V22.3157C71.6052 22.979 71.1631 23.4211 70.5 23.4211Z" fill="black"/>
<path d="M73.8158 23.4211C73.1527 23.4211 72.7106 22.979 72.7106 22.3159V20.1052C72.7106 19.4421 73.1527 19 73.8158 19C74.4789 19 74.921 19.4421 74.921 20.1052V22.3157C74.921 22.979 74.479 23.4211 73.8158 23.4211Z" fill="black"/>
<path d="M28.5 66.5264H19.6578C18.9947 66.5264 18.5526 66.0843 18.5526 65.4212V49.9474C18.5526 49.2843 18.9947 48.8422 19.6578 48.8422H28.5C29.1631 48.8422 29.6052 49.2843 29.6052 49.9474V65.421C29.6053 66.0843 29.1632 66.5264 28.5 66.5264ZM20.7631 64.3158H27.3948V51.0526H20.7631V64.3158Z" fill="black"/>
<path d="M49.5 66.5264H40.6579C39.9948 66.5264 39.5527 66.0843 39.5527 65.4212V49.9474C39.5527 49.2843 39.9948 48.8422 40.6579 48.8422H49.5C50.1631 48.8422 50.6052 49.2843 50.6052 49.9474V65.421C50.6052 66.0843 50.1631 66.5264 49.5 66.5264ZM41.7632 64.3158H48.3948V51.0526H41.7632V64.3158Z" fill="black"/>
<path d="M70.5 66.5264H61.6579C60.9948 66.5264 60.5527 66.0843 60.5527 65.4212V49.9474C60.5527 49.2843 60.9948 48.8422 61.6579 48.8422H70.5C71.1631 48.8422 71.6052 49.2843 71.6052 49.9474V65.421C71.6052 66.0843 71.1631 66.5264 70.5 66.5264ZM62.7631 64.3158H69.3947V51.0526H62.7631V64.3158Z" fill="black"/>
</svg>
