<svg width="100" height="100" viewBox="0 0 100 100" fill="none" xmlns="http://www.w3.org/2000/svg">
<rect width="100" height="100" rx="50" fill="#00043A"/>
<path d="M62.8431 42.0435H56.979V36.1731C56.979 34.8062 55.8706 33.6979 54.5035 33.6979H44.4967C43.1299 33.6979 42.0215 34.8062 42.0215 36.1731V42.0433H36.1572C34.7903 42.0433 33.682 43.1516 33.682 44.5184V54.5331C33.682 55.9 34.7903 57.0083 36.1572 57.0083H42.0215V62.8782C42.0215 64.2451 43.1299 65.3534 44.4967 65.3534H54.5035C55.8706 65.3534 56.979 64.2451 56.979 62.8782V57.0083H62.8431C64.2099 57.0083 65.3183 55.9 65.3183 54.5331V44.5184C65.3183 43.1516 64.2099 42.0435 62.8431 42.0435V42.0435ZM60.3679 52.0579H54.5035C53.1367 52.0579 52.0284 53.1663 52.0284 54.5331V60.403H46.9719V54.5331C46.9719 53.1663 45.8635 52.0579 44.4967 52.0579H38.6323V46.9936H44.4967C45.8635 46.9936 46.9719 45.8853 46.9719 44.5184V38.6483H52.0284V44.5184C52.0284 45.8853 53.1367 46.9936 54.5035 46.9936H60.3679V52.0579V52.0579Z" fill="#FFCC1D"/>
<path d="M49.5001 23.6835C35.2598 23.6835 23.6749 35.2763 23.6749 49.5256C23.6749 63.775 35.2601 75.3678 49.5001 75.3678C63.7402 75.3678 75.3254 63.775 75.3254 49.5256C75.3254 35.2763 63.7404 23.6835 49.5001 23.6835V23.6835ZM49.5001 70.4172C37.9897 70.4172 28.6255 61.0454 28.6255 49.5256C28.6255 38.0059 37.99 28.6341 49.5001 28.6341C61.0103 28.6341 70.3747 38.0059 70.3747 49.5256C70.3747 61.0454 61.0105 70.4172 49.5001 70.4172Z" fill="#FFCC1D"/>
<path d="M49.5001 20.8447C50.867 20.8447 51.9753 19.7363 51.9753 18.3695V14.4752C51.9753 13.1083 50.867 12 49.5001 12C48.1333 12 47.0249 13.1083 47.0249 14.4752V18.3695C47.0249 19.7363 48.1333 20.8447 49.5001 20.8447Z" fill="#FFCC1D"/>
<path d="M49.5001 78.2066C48.1333 78.2066 47.0249 79.315 47.0249 80.6818V84.5759C47.0249 85.9427 48.1333 87.0513 49.5001 87.0513C50.867 87.0513 51.9753 85.9427 51.9753 84.5759V80.6818C51.9753 79.315 50.867 78.2066 49.5001 78.2066Z" fill="#FFCC1D"/>
<path d="M84.5246 47.0505H80.6338C79.2669 47.0505 78.1586 48.1588 78.1586 49.5257C78.1586 50.8925 79.2669 52.0008 80.6338 52.0008H84.5246C85.8917 52.0008 87 50.8925 87 49.5257C87 48.1588 85.8917 47.0505 84.5246 47.0505Z" fill="#FFCC1D"/>
<path d="M18.3667 47.0505H14.4754C13.1086 47.0505 12 48.1588 12 49.5257C12 50.8925 13.1086 52.0008 14.4754 52.0008H18.3667C19.7336 52.0008 20.8419 50.8925 20.8419 49.5257C20.8419 48.1588 19.7336 47.0505 18.3667 47.0505V47.0505Z" fill="#FFCC1D"/>
<path d="M72.5156 22.9911L69.7632 25.7453C68.7966 26.7121 68.7971 28.2796 69.7645 29.2459C70.2476 29.7288 70.8806 29.9701 71.5139 29.9701C72.1479 29.9701 72.7817 29.7283 73.2649 29.2446L76.0172 26.4905C76.9836 25.5236 76.9831 23.9564 76.016 22.9901C75.0492 22.0235 73.4817 22.024 72.5156 22.9911Z" fill="#FFCC1D"/>
<path d="M25.7344 69.8059L22.9825 72.5598C22.0165 73.5269 22.0172 75.0939 22.984 76.0605C23.4672 76.5434 24.1005 76.7847 24.7337 76.7847C25.3675 76.7847 26.0015 76.5429 26.4847 76.0592L29.2365 73.305C30.2029 72.338 30.2021 70.771 29.2353 69.8042C28.268 68.8383 26.7005 68.8391 25.7344 69.8059V69.8059Z" fill="#FFCC1D"/>
<path d="M25.7351 29.2444C26.2183 29.728 26.8521 29.9699 27.4861 29.9699C28.1191 29.9699 28.7524 29.7285 29.2358 29.2456C30.2028 28.2796 30.2031 26.7121 29.2368 25.745L26.4846 22.9911C25.5186 22.024 23.9511 22.023 22.984 22.9898C22.0169 23.9559 22.0164 25.5231 22.9828 26.4902L25.7351 29.2444V29.2444Z" fill="#FFCC1D"/>
<path d="M73.2651 69.8059C72.2986 68.8391 70.7313 68.8384 69.7647 69.8044C68.7979 70.771 68.7969 72.338 69.7632 73.3053L72.5151 76.0595C72.9985 76.5431 73.6323 76.7849 74.2661 76.7849C74.8993 76.7849 75.5326 76.5436 76.0157 76.0607C76.9826 75.0944 76.9833 73.5274 76.0173 72.5601L73.2651 69.8059V69.8059Z" fill="#FFCC1D"/>
</svg>
